<svg xmlns="http://www.w3.org/2000/svg" width="36" height="36" viewBox="0 0 36 36">
    <g fill="none" fill-rule="evenodd">
        <g>
            <g>
                <g>
                    <g transform="translate(-84 -1997) translate(0 1522) translate(32 475) translate(52)">
                        <circle cx="18" cy="18" r="18" fill="#F4F7FC"/>
                        <path fill="#537CFD" fill-rule="nonzero" d="M18.897 11c.746.003 1.115.008 1.46.02l.172.007.37.017c.745.033 1.253.153 1.699.325.465.175.888.451 1.239.807.358.35.631.77.809 1.241.172.443.292.955.325 1.698l.015.37.006.172c.008.286.012.59.014 1.115v1.707c0 1.469-.01 1.727-.04 2.406-.033.743-.153 1.252-.326 1.698-.363.94-1.107 1.684-2.048 2.048-.443.172-.954.292-1.698.325l-.37.016-.17.006c-.345.011-.714.016-1.46.018l-.635.001h-1.134c-1.12-.004-1.39-.014-2-.04-.744-.034-1.253-.154-1.698-.326-.465-.175-.889-.451-1.239-.807-.355-.35-.632-.77-.81-1.241-.172-.443-.292-.955-.325-1.698-.027-.611-.037-.881-.04-2v-1.77c.002-.746.008-1.115.02-1.46l.006-.171.017-.372c.033-.743.153-1.252.325-1.698.175-.464.452-.888.807-1.238.35-.358.771-.632 1.242-.81.442-.172.954-.292 1.698-.325l.37-.016.17-.006c.345-.01.714-.016 1.46-.018zm-.2 1.272H17.34c-.862.001-1.252.007-1.617.019l-.168.006-.365.015c-.68.03-1.052.145-1.298.241-.304.112-.577.29-.804.522-.235.225-.413.5-.525.804-.096.246-.21.616-.24 1.3-.03.668-.04.914-.042 2.356v.94c.002 1.443.011 1.687.041 2.358.03.68.145 1.053.24 1.299.113.303.29.577.523.804.224.232.5.41.804.522.246.096.615.21 1.299.24l.363.016.168.006c.337.011.696.017 1.427.019h1.737c.732-.002 1.09-.008 1.427-.019l.168-.006.364-.016c.681-.03 1.053-.144 1.3-.24.609-.235 1.093-.72 1.328-1.33.096-.245.21-.614.24-1.298.03-.671.04-.913.042-2.354v-.94c-.002-1.443-.011-1.687-.041-2.358-.03-.68-.145-1.053-.24-1.299-.113-.303-.29-.577-.523-.804-.224-.232-.5-.41-.804-.522-.246-.096-.615-.21-1.299-.24l-.363-.016-.168-.006c-.364-.012-.754-.018-1.618-.019zm-.685 2.132c1.985 0 3.596 1.61 3.596 3.596 0 1.985-1.61 3.596-3.596 3.596-1.985 0-3.595-1.61-3.595-3.596 0-1.985 1.61-3.596 3.595-3.596zm0 1.264c-1.288 0-2.332 1.044-2.332 2.332 0 1.288 1.044 2.332 2.332 2.332 1.288 0 2.333-1.044 2.333-2.332 0-1.288-1.045-2.332-2.333-2.332zm3.738-2.245c.464 0 .84.375.84.84 0 .463-.376.839-.84.839-.463 0-.84-.376-.84-.84 0-.464.377-.84.84-.84z"/>
                    </g>
                </g>
            </g>
        </g>
    </g>
</svg>
