<svg xmlns="http://www.w3.org/2000/svg" width="36" height="36" viewBox="0 0 36 36">
    <g fill="none" fill-rule="evenodd">
        <g>
            <g>
                <g>
                    <g transform="translate(-136 -1997) translate(0 1522) translate(32 475) translate(104)">
                        <circle cx="18" cy="18" r="18" fill="#F4F7FC"/>
                        <path fill="#537CFD" fill-rule="nonzero" d="M21.771 15.103c2.727 0 3.229 1.796 3.229 4.129v4.767L22.307 24v-4.348c-.003-.986-.075-2.176-1.4-2.176-1.402 0-1.617 1.094-1.617 2.226v4.297h-2.692V15.32h2.586v1.184h.037c.36-.682 1.24-1.401 2.55-1.401zm-6.861.218V24h-2.696v-8.68h2.696zM13.56 11c.861 0 1.56.7 1.561 1.561 0 .862-.7 1.576-1.56 1.576-.863 0-1.562-.714-1.562-1.576C12 11.7 12.7 11 13.561 11z"/>
                    </g>
                </g>
            </g>
        </g>
    </g>
</svg>
