<svg xmlns="http://www.w3.org/2000/svg" width="36" height="36" viewBox="0 0 36 36">
    <g fill="none" fill-rule="evenodd">
        <g>
            <g>
                <g>
                    <g transform="translate(-240 -1997) translate(0 1522) translate(32 475) translate(208)">
                        <circle cx="18" cy="18" r="18" fill="#F4F7FC"/>
                        <path fill="#537CFD" fill-rule="nonzero" d="M22.987 14.856c-1.364 0-2.474-1.11-2.474-2.475 0-.21-.17-.381-.381-.381h-2.04c-.21 0-.38.17-.38.38v8.364c0 .802-.654 1.455-1.456 1.455-.802 0-1.455-.653-1.455-1.455 0-.803.653-1.455 1.455-1.455.21 0 .381-.17.381-.381v-2.04c0-.21-.17-.38-.38-.38-2.348 0-4.257 1.909-4.257 4.256C12 23.09 13.91 25 16.256 25c2.347 0 4.257-1.91 4.257-4.256v-3.702c.758.404 1.601.615 2.474.615.21 0 .381-.17.381-.38v-2.04c0-.21-.17-.381-.38-.381z"/>
                    </g>
                </g>
            </g>
        </g>
    </g>
</svg>
